<svg xmlns="http://www.w3.org/2000/svg" width="19" height="23" viewBox="0 0 19 23"><g><g><path fill="#fff" d="M19 3.697c0 3.256-3.408 5.704-5.271 6.317-.702 1.156-1.5 1.99-2.375 2.481.067.258.078.49.078.496 0 .008-.04.644-.322.948v.88c.819.225 1.367.606 1.552 1.071h1.077c.2 0 .36.16.36.36v4.703h.264c.199 0 .36.161.36.36v1.327a.36.36 0 0 1-.36.36H4.637a.36.36 0 0 1-.36-.36v-1.327a.36.36 0 0 1 .36-.36H4.9V16.25a.36.36 0 0 1 .36-.36h1.077c.185-.464.734-.846 1.553-1.071v-.889c-.282-.306-.323-.93-.323-.94 0-.004.012-.237.078-.496-.875-.491-1.673-1.325-2.374-2.48C3.408 9.402 0 6.954 0 3.697 0 2.103 1.369.81 2.98.934a15.382 15.382 0 0 1-.007-.322c0-.163.062-.316.178-.432A.605.605 0 0 1 3.582 0h11.835a.603.603 0 0 1 .608.614 15.79 15.79 0 0 1-.006.32A2.778 2.778 0 0 1 19 3.697zm-.721 0c0-1.207-1.04-2.19-2.29-2.039l-.023.373c-.177 2.63-.76 5.037-1.687 6.966 1.63-.836 4-2.795 4-5.3zm-17.559 0c0 2.505 2.37 4.463 4 5.3-.926-1.929-1.51-4.335-1.687-6.967a26.783 26.783 0 0 1-.023-.371C1.76 1.505.72 2.489.72 3.697zm9.669 10.976v-.576H8.611v.576l.014-.002a6.646 6.646 0 0 1 1.764.002zm3.614 7H4.997v.608h9.006zm-.624-5.064H5.62v4.344h7.758zm-.72 1.078v2.188a.36.36 0 0 1-.36.36H6.701a.36.36 0 0 1-.36-.36v-2.188a.36.36 0 0 1 .36-.36h5.596c.2 0 .36.161.36.36zm-.721.36H7.062v1.468h4.876zM15.303.717H3.696c.004.199.012.395.02.592.01.248.023.46.037.672.173 2.57.743 4.91 1.649 6.768.13.268.271.53.418.779.615 1.041 1.329 1.825 2.072 2.277h3.216c.743-.452 1.457-1.236 2.072-2.277.146-.248.287-.51.418-.78.906-1.857 1.476-4.197 1.649-6.767.014-.212.026-.424.035-.64.009-.207.017-.414.02-.624zm-.755.875l-.02.335c-.157 2.317-.69 4.51-1.502 6.176-.116.239-.242.475-.376.701-.478.81-1.026 1.447-1.586 1.845l-.418-.586c.478-.34.956-.9 1.383-1.624.124-.21.241-.429.35-.65.772-1.584 1.28-3.683 1.43-5.91l.02-.324zm-3.836 11.398a1.986 1.986 0 0 0-.105-.466H8.393c-.052.139-.104.38-.105.466.001.073.047.269.094.386h2.236c.047-.117.093-.313.094-.386zm1.045 2.899c-.223-.167-.588-.331-1.084-.438a5.175 5.175 0 0 0-.478-.08 5.899 5.899 0 0 0-1.872.08c-.494.108-.858.271-1.08.438z"/></g></g></svg>