<svg xmlns="http://www.w3.org/2000/svg" width="26" height="23" viewBox="0 0 26 23"><g><g><path fill="#fff" d="M25.41 13.316v7.868c0 1.029-.77 1.816-1.774 1.816H2.364C1.359 23 .59 22.213.59 21.184v-7.868c0-.364.236-.605.59-.605.355 0 .592.241.592.605v7.868c0 .363.236.605.59.605h21.273c.355 0 .591-.242.591-.605v-7.868c0-.364.237-.605.591-.605.355 0 .591.241.591.605zM26 6.052v3.874c0 .847-.59 1.574-1.36 1.755L15.365 13.8v1.938c0 .363-.237.605-.591.605h-3.546c-.354 0-.59-.242-.59-.605v-1.938l-9.278-2.118C.591 11.5 0 10.773 0 9.926V6.052c0-1.029.77-1.816 1.774-1.816h22.454c1.005 0 1.773.787 1.773 1.816zm-11.818 6.659h-2.364v2.42h2.364zm10.636-6.659c0-.363-.236-.605-.59-.605H1.772c-.355 0-.591.242-.591.605v3.874c0 .303.177.545.472.606l8.982 2.057v-.484c0-.363.237-.605.591-.605h3.546c.354 0 .59.242.59.605v.484l8.982-2.058c.296-.06.473-.302.473-.605zm-7.09-4.236v.605c0 .363-.237.605-.592.605-.354 0-.59-.242-.59-.605v-.605c0-.364-.237-.606-.592-.606h-5.909c-.354 0-.59.242-.59.606v.605c0 .363-.237.605-.591.605-.355 0-.591-.242-.591-.605v-.605c0-1.03.768-1.817 1.772-1.817h5.91c1.004 0 1.772.788 1.772 1.817z"/></g></g></svg>